<svg width="1200" height="630" viewBox="0 0 1200 630" fill="none" xmlns="http://www.w3.org/2000/svg">
  <!-- 배경 그라데이션 -->
  <defs>
    <linearGradient id="bgGradient" x1="0%" y1="0%" x2="100%" y2="100%">
      <stop offset="0%" style="stop-color:#F0FDFA;stop-opacity:1" />
      <stop offset="100%" style="stop-color:#CCFBF1;stop-opacity:1" />
    </linearGradient>
    <linearGradient id="logoGradient" x1="0%" y1="0%" x2="100%" y2="100%">
      <stop offset="0%" style="stop-color:#0D9488;stop-opacity:1" />
      <stop offset="100%" style="stop-color:#0F766E;stop-opacity:1" />
    </linearGradient>
  </defs>
  
  <!-- 배경 -->
  <rect width="1200" height="630" fill="url(#bgGradient)"/>
  
  <!-- 장식 원들 -->
  <circle cx="100" cy="100" r="60" fill="#0D9488" opacity="0.1"/>
  <circle cx="1100" cy="530" r="80" fill="#0D9488" opacity="0.1"/>
  <circle cx="200" cy="500" r="40" fill="#0D9488" opacity="0.15"/>
  <circle cx="1000" cy="150" r="50" fill="#0D9488" opacity="0.1"/>
  
  <!-- 메인 로고 영역 -->
  <rect x="100" y="150" width="200" height="200" rx="20" fill="url(#logoGradient)"/>
  <rect x="120" y="170" width="160" height="160" rx="15" fill="white"/>
  <rect x="140" y="190" width="120" height="120" rx="10" fill="#0D9488"/>
  
  <!-- 로고 내부 심볼 -->
  <circle cx="200" cy="250" r="8" fill="white"/>
  <circle cx="200" cy="250" r="4" fill="#0D9488"/>
  <path d="M180 270C180 265.582 183.582 262 188 262H212C216.418 262 220 265.582 220 270C220 274.418 216.418 278 212 278H188C183.582 278 180 274.418 180 270Z" fill="white"/>
  
  <!-- 메인 텍스트 -->
  <text x="400" y="220" font-family="Pretendard, -apple-system, BlinkMacSystemFont, system-ui, Roboto, sans-serif" font-size="48" font-weight="bold" fill="#0F172A">
    성모이음 정신건강의학과
  </text>
  
  <!-- 서브 텍스트 -->
  <text x="400" y="280" font-family="Pretendard, -apple-system, BlinkMacSystemFont, system-ui, Roboto, sans-serif" font-size="24" font-weight="500" fill="#475569">
    마음과 마음을 이음
  </text>
  
  <!-- 설명 텍스트 -->
  <text x="400" y="330" font-family="Pretendard, -apple-system, BlinkMacSystemFont, system-ui, Roboto, sans-serif" font-size="20" fill="#64748B">
    서울 은평구 진관동 • 대표원장 김태형
  </text>
  
  <!-- 특징 태그들 -->
  <rect x="400" y="380" width="120" height="40" rx="20" fill="#0D9488" opacity="0.1"/>
  <text x="460" y="405" font-family="Pretendard, -apple-system, BlinkMacSystemFont, system-ui, Roboto, sans-serif" font-size="16" font-weight="600" fill="#0D9488" text-anchor="middle">
    우울증
  </text>
  
  <rect x="540" y="380" width="120" height="40" rx="20" fill="#0D9488" opacity="0.1"/>
  <text x="600" y="405" font-family="Pretendard, -apple-system, BlinkMacSystemFont, system-ui, Roboto, sans-serif" font-size="16" font-weight="600" fill="#0D9488" text-anchor="middle">
    불안장애
  </text>
  
  <rect x="680" y="380" width="120" height="40" rx="20" fill="#0D9488" opacity="0.1"/>
  <text x="740" y="405" font-family="Pretendard, -apple-system, BlinkMacSystemFont, system-ui, Roboto, sans-serif" font-size="16" font-weight="600" fill="#0D9488" text-anchor="middle">
    ADHD
  </text>
  
  <rect x="820" y="380" width="120" height="40" rx="20" fill="#0D9488" opacity="0.1"/>
  <text x="880" y="405" font-family="Pretendard, -apple-system, BlinkMacSystemFont, system-ui, Roboto, sans-serif" font-size="16" font-weight="600" fill="#0D9488" text-anchor="middle">
    치매
  </text>
  
  <!-- 연락처 정보 -->
  <text x="400" y="480" font-family="Pretendard, -apple-system, BlinkMacSystemFont, system-ui, Roboto, sans-serif" font-size="18" font-weight="600" fill="#0F172A">
    📍 서울 은평구 진관동 72 드림스퀘어 4층
  </text>
  <text x="400" y="510" font-family="Pretendard, -apple-system, BlinkMacSystemFont, system-ui, Roboto, sans-serif" font-size="18" font-weight="600" fill="#0F172A">
    📞 02-2138-1568
  </text>
  <text x="400" y="540" font-family="Pretendard, -apple-system, BlinkMacSystemFont, system-ui, Roboto, sans-serif" font-size="18" font-weight="600" fill="#0F172A">
    🌐 sungmo-ieum.com
  </text>
</svg>
