<svg width="32" height="32" viewBox="0 0 32 32" fill="none" xmlns="http://www.w3.org/2000/svg">
  <rect width="32" height="32" rx="8" fill="#0D9488"/>
  <path d="M8 12C8 9.79086 9.79086 8 12 8H20C22.2091 8 24 9.79086 24 12V20C24 22.2091 22.2091 24 20 24H12C9.79086 24 8 22.2091 8 20V12Z" fill="white"/>
  <path d="M12 14C12 13.4477 12.4477 13 13 13H19C19.5523 13 20 13.4477 20 14V18C20 18.5523 19.5523 19 19 19H13C12.4477 19 12 18.5523 12 18V14Z" fill="#0D9488"/>
  <circle cx="14.5" cy="15.5" r="0.5" fill="white"/>
  <circle cx="17.5" cy="15.5" r="0.5" fill="white"/>
  <path d="M14 17.5C14 17.2239 14.2239 17 14.5 17H17.5C17.7761 17 18 17.2239 18 17.5C18 17.7761 17.7761 18 17.5 18H14.5C14.2239 18 14 17.7761 14 17.5Z" fill="white"/>
</svg>
